<svg xmlns="http://www.w3.org/2000/svg" xmlns:xlink="http://www.w3.org/1999/xlink" version="1.1" x="0px" y="0px" viewBox="0 0 100 100" enable-background="new 0 0 100 100" xml:space="preserve"><path fill="#000000" d="M40.625,55.625c1.034,0,1.875-1.26,1.875-2.812c0-0.886-0.278-1.665-0.703-2.179l-2.984,1.492  c-0.037,0.222-0.062,0.448-0.062,0.687C38.75,54.365,39.589,55.625,40.625,55.625z"></path><path fill="#000000" d="M59.375,55.625c1.036,0,1.875-1.26,1.875-2.812c0-0.238-0.025-0.465-0.062-0.687l-2.984-1.492  c-0.425,0.514-0.703,1.292-0.703,2.179C57.5,54.365,58.341,55.625,59.375,55.625z"></path><path fill="#000000" d="M61.25,60.312c-1.326,0-2.027,0.701-2.538,1.212c-0.459,0.46-0.685,0.663-1.212,0.663  s-0.753-0.203-1.212-0.663c-0.511-0.511-1.212-1.212-2.538-1.212s-2.027,0.701-2.538,1.212c-0.459,0.46-0.685,0.663-1.212,0.663  s-0.753-0.203-1.212-0.663c-0.511-0.511-1.212-1.212-2.538-1.212s-2.027,0.701-2.538,1.212c-0.459,0.46-0.685,0.663-1.212,0.663  s-0.753-0.203-1.212-0.663c-0.511-0.511-1.212-1.212-2.538-1.212c-0.519,0-0.938,0.419-0.938,0.938s0.419,0.938,0.938,0.938  c0.527,0,0.753,0.203,1.212,0.663c0.511,0.513,1.212,1.212,2.538,1.212s2.027-0.699,2.538-1.212c0.459-0.46,0.685-0.663,1.212-0.663  s0.753,0.203,1.212,0.663c0.511,0.513,1.212,1.212,2.538,1.212s2.027-0.699,2.538-1.212c0.459-0.46,0.685-0.663,1.212-0.663  s0.753,0.203,1.212,0.663c0.511,0.513,1.212,1.212,2.538,1.212s2.027-0.699,2.538-1.212c0.459-0.46,0.685-0.663,1.212-0.663  c0.519,0,0.938-0.419,0.938-0.938S61.769,60.312,61.25,60.312z"></path><path fill="#000000" d="M78.125,19.062H60.217c-0.436-2.139-2.327-3.75-4.592-3.75h-11.25c-2.265,0-4.156,1.611-4.592,3.75H21.875  c-1.551,0-2.812,1.262-2.812,2.812c0,1.24,0.812,2.283,1.928,2.655l3.699,51.786l0,0v0.002c0.176,2.459,2.363,4.62,4.684,4.622  c0.002,0,0.002,0,0.002,0c0.004,0,0.006-0.002,0.009-0.002h41.232c0.003,0,0.005,0.002,0.009,0.002c0,0,0,0,0.002,0  c2.32-0.002,4.508-2.163,4.684-4.622v-0.002l0,0L79.01,24.53c1.116-0.372,1.928-1.416,1.928-2.655  C80.938,20.324,79.676,19.062,78.125,19.062z M44.375,17.188h11.25c1.222,0,2.252,0.787,2.641,1.875H41.734  C42.123,17.975,43.153,17.188,44.375,17.188z M73.439,76.184L73.439,76.184c0,0.002,0,0.002,0,0.002  c-0.104,1.474-1.471,2.871-2.809,2.876c-0.002,0-0.004,0-0.006,0h-41.25c-0.002,0-0.004,0-0.006,0  c-1.338-0.005-2.704-1.402-2.809-2.876c0,0,0,0,0-0.002l0,0l-3.679-51.497h22.431v8.438c0,2.585,2.102,4.688,4.688,4.688  s4.688-2.102,4.688-4.688c0-1.551,1.262-2.812,2.812-2.812s2.812,1.262,2.812,2.812v7.5c0,3.618,2.944,6.562,6.562,6.562  s6.562-2.944,6.562-6.562V24.688h3.681L73.439,76.184z M71.562,24.688v15.938c0,2.585-2.102,4.688-4.688,4.688  s-4.688-2.102-4.688-4.688v-7.5c0-2.585-2.102-4.688-4.688-4.688s-4.688,2.102-4.688,4.688c0,1.551-1.262,2.812-2.812,2.812  s-2.812-1.262-2.812-2.812v-8.438H71.562z M78.125,22.812h-56.25c-0.517,0-0.938-0.421-0.938-0.938s0.421-0.938,0.938-0.938h56.25  c0.517,0,0.938,0.421,0.938,0.938S78.642,22.812,78.125,22.812z"></path></svg>